<?xml version="1.0" encoding="UTF-8"?>
<svg version="1.1" xmlns="http://www.w3.org/2000/svg" width="600" height="600">
<path d="M0 0 C4.29208633 0.00260164 8.58417096 0.00016499 12.87625742 -0.00138617 C20.07490033 -0.00318619 27.27353285 -0.00085985 34.47217417 0.00395441 C42.69053652 0.00938859 50.90887402 0.00763158 59.12723577 0.00212801 C66.29268646 -0.00247094 73.45812984 -0.00302104 80.62358153 -0.00043333 C84.85516888 0.00109337 89.08674472 0.00142664 93.31833124 -0.00196981 C110.20258137 -0.01364232 127.07199804 0.09067735 143.94971323 0.59184504 C144.9800089 0.62216401 144.9800089 0.62216401 146.03111863 0.65309548 C196.5881608 2.17866264 253.24982874 7.70185595 290.16016245 46.69291925 C291.6692502 48.30605497 291.6692502 48.30605497 294.06641245 50.0718255 C323.02812689 73.96523991 336.79405157 117.25214029 340.56641245 153.1343255 C343.48824312 184.51266549 343.72897676 216.00768614 343.73366952 247.49363065 C343.73439268 250.23644928 343.73655015 252.97926326 343.73916674 255.72208071 C343.7483556 265.38431972 343.75251031 275.04654516 343.75171518 284.70878839 C343.75118372 292.58706439 343.758221 300.46529067 343.772223 308.34355402 C344.03247056 458.10946817 344.03247056 458.10946817 325.56641245 499.1343255 C325.25977671 499.81785089 324.95314096 500.50137629 324.63721323 501.20561457 C318.10643139 515.49952899 309.9169981 528.22046403 299.01953745 539.56010675 C297.08367114 541.59153334 295.3109901 543.63107713 293.56641245 545.8218255 C289.50612766 550.59727409 284.51328974 554.32616336 279.56641245 558.1343255 C279.0348353 558.54618097 278.50325815 558.95803644 277.95557261 559.38237238 C269.0386261 566.22898377 259.77215567 571.45551168 249.56641245 576.1343255 C248.40238901 576.67959894 247.23836557 577.22487238 246.0390687 577.78666925 C234.01327617 583.20034218 221.5752934 586.64580622 208.69141245 589.3218255 C207.962931 589.47667414 207.23444956 589.63152277 206.48389292 589.79106379 C190.97369617 592.83741361 174.98581105 593.59747711 159.2265687 594.2437005 C158.2233514 594.28557238 157.22013411 594.32744425 156.18651628 594.37058496 C122.01237991 595.73952517 87.78532685 595.43459654 53.59075463 595.39146423 C46.91212854 595.38391622 40.23356176 595.38664873 33.55493784 595.39506769 C-39.54669833 595.48471617 -39.54669833 595.48471617 -68.5859313 594.2437005 C-69.97082345 594.18545477 -69.97082345 594.18545477 -71.38369322 594.12603235 C-87.23647166 593.4293286 -103.30046428 592.47723678 -118.80858755 588.9468255 C-119.76136587 588.73324396 -120.71414419 588.51966242 -121.69579458 588.29960871 C-142.1506701 583.53468684 -162.14489915 576.25077472 -179.43358755 564.1343255 C-180.02945669 563.7227923 -180.62532583 563.3112591 -181.23925161 562.88725519 C-188.14528911 558.09552232 -194.71214098 553.5136746 -199.9765563 546.876513 C-201.44361862 545.12233124 -202.94442571 543.84673746 -204.74608755 542.4468255 C-225.43325198 525.28482811 -237.36618328 494.60649119 -243.43358755 469.1343255 C-243.69913443 468.09791925 -243.9646813 467.061513 -244.23827505 465.9937005 C-256.31149549 415.46042734 -251.73229507 359.65039328 -251.63418394 308.0741964 C-251.62084315 300.71637472 -251.61848436 293.35858287 -251.61913365 286.00075072 C-251.61981869 277.00945723 -251.61283679 268.01818067 -251.60368705 259.02689242 C-251.6015999 256.51109943 -251.60085216 253.99530933 -251.60044813 251.47951555 C-251.5951689 234.57097961 -251.47555533 217.67612804 -250.97387075 200.77421808 C-250.95371794 200.08967849 -250.93356513 199.4051389 -250.91280162 198.69985569 C-249.29234241 144.98832167 -242.4140691 92.96658312 -203.82323599 52.59135675 C-202.47619175 51.17899554 -201.14598583 49.75063411 -199.81640005 48.3218255 C-182.64907485 30.39037604 -160.15734463 18.11060657 -136.43358755 11.1343255 C-135.69753286 10.91196222 -134.96147818 10.68959894 -134.2031188 10.46049738 C-91.43036655 -2.28418517 -44.25724282 -0.03546587 0 0 Z M11.38425303 54.15043879 C0.02167928 54.23601069 -11.34043305 54.35036309 -22.70255804 54.48220301 C-25.06640697 54.50871229 -27.43026809 54.53257022 -29.79415274 54.55565119 C-45.72556911 54.71530311 -61.61389955 55.05827605 -77.5156188 56.0874505 C-78.77444372 56.16877222 -80.03326864 56.25009394 -81.33023977 56.33387995 C-90.8402536 56.99839195 -100.11611003 58.12281305 -109.43358755 60.1343255 C-110.65819693 60.38698175 -111.8828063 60.639638 -113.14452505 60.8999505 C-129.07416514 64.63611342 -143.95408547 71.52880806 -156.43358755 82.1343255 C-157.11163443 82.66413019 -157.7896813 83.19393488 -158.48827505 83.73979425 C-159.85244441 84.81164161 -161.15471226 85.96202316 -162.43358755 87.1343255 C-162.43358755 87.7943255 -162.43358755 88.4543255 -162.43358755 89.1343255 C-163.42358755 89.4643255 -164.41358755 89.7943255 -165.43358755 90.1343255 C-196.24912967 123.2398756 -196.19708209 170.76495744 -196.98827505 213.23198175 C-197.00921099 214.31860668 -197.03014692 215.40523161 -197.05171728 216.52478456 C-197.52258061 241.4354597 -197.58740006 266.34413282 -197.56395864 291.25859308 C-197.55826533 297.34881718 -197.56165815 303.4389975 -197.56739855 309.5292201 C-197.58738599 334.59209349 -197.45696992 359.64595214 -196.9765563 384.704638 C-196.95634043 385.78137215 -196.93612455 386.85810629 -196.91529608 387.96746874 C-196.15957909 450.29961375 -196.15957909 450.29961375 -166.43358755 503.1343255 C-165.34362132 504.46224211 -164.26001927 505.79541414 -163.18358755 507.1343255 C-143.22071411 529.85069873 -110.3874129 537.3534745 -81.49608755 539.3843255 C-54.18219313 540.92843396 -26.87973986 541.29023233 0.46972132 541.26865101 C4.82413646 541.26605126 9.17854992 541.26848545 13.53296518 541.27003717 C20.83415727 541.27183732 28.13533912 541.2695101 35.43652964 541.2646966 C43.77989985 541.25925822 52.12324558 541.26102242 60.4666152 541.266523 C67.73564307 541.27111653 75.00466375 541.27167471 82.27369261 541.26908433 C86.56893229 541.26755531 90.86416063 541.26723147 95.15939951 541.27062082 C182.2629501 544.41582715 182.2629501 544.41582715 256.87891245 506.1968255 C283.19361592 479.41221662 287.3376069 441.77939532 288.6796937 405.985888 C288.72168705 404.89847944 288.7636804 403.81107088 288.80694628 402.69071054 C290.02097648 370.2332534 289.83266169 337.75166137 289.76700938 305.27711844 C289.7536368 298.3383169 289.75131037 291.39954695 289.75195855 284.46073425 C289.75264404 275.95971305 289.74566428 267.45870971 289.73651195 258.95769405 C289.73442871 256.58683591 289.73367766 254.21598083 289.73327303 251.84512186 C289.72785889 235.51074443 289.58857356 219.19120099 289.1027894 202.86332941 C289.07215987 201.82852194 289.07215987 201.82852194 289.04091156 200.77280927 C287.75828024 158.41076785 284.75664276 115.7448944 252.25391245 84.8218255 C229.01420272 64.74218962 200.26055739 57.85340205 170.18359995 56.048388 C169.50706244 56.00691267 168.83052492 55.96543734 168.13348627 55.92270517 C150.86595195 54.88141944 133.58797094 54.68565685 116.29375696 54.53303003 C113.6394058 54.50885178 110.98509943 54.48174713 108.33078623 54.45372248 C96.07614476 54.32440681 83.82144348 54.21883275 71.56641245 54.1343255 C70.84742525 54.12933039 70.12843805 54.12433527 69.38766336 54.11918879 C50.052223 53.98720771 30.71953495 54.00766515 11.38425303 54.15043879 Z " fill="#FCFCFC" transform="translate(253.43358755111694,1.8656744956970215)"/>
<path d="M0 0 C0.78697266 0.19867676 1.57394531 0.39735352 2.38476562 0.60205078 C25.7377324 6.67691646 46.76498885 17.05523668 65 33 C65.5048291 33.43924805 66.0096582 33.87849609 66.52978516 34.33105469 C86.20102178 51.56891674 101.24685286 73.34738631 110 98 C110.22816406 98.63663574 110.45632813 99.27327148 110.69140625 99.92919922 C124.03500845 137.8345606 120.89734824 179.76406525 104 216 C86.47897596 252.27603812 54.4990315 280.82335661 16.6640625 294.46484375 C-0.38169571 300.26215057 -16.64550654 302.23345615 -34.5625 302.25 C-35.31978394 302.25100708 -36.07706787 302.25201416 -36.8572998 302.25305176 C-47.86097439 302.24314851 -58.30499819 301.8182775 -69 299 C-70.80984375 298.54753906 -70.80984375 298.54753906 -72.65625 298.0859375 C-89.63933277 293.54480885 -106.79740191 286.53502943 -121 276 C-121.98097656 275.28328125 -122.96195312 274.5665625 -123.97265625 273.828125 C-136.03960341 264.86864013 -146.94404012 255.05675131 -156 243 C-156.60199219 242.20207031 -157.20398438 241.40414062 -157.82421875 240.58203125 C-162.80130583 233.72595399 -166.93366785 226.41605659 -171 219 C-171.5259375 218.07960938 -172.051875 217.15921875 -172.59375 216.2109375 C-189.45956162 185.08095542 -192.47118283 142.41433744 -182.453125 108.6484375 C-179.36666657 98.76234355 -175.73100043 89.22165592 -171 80 C-170.27683594 78.57494141 -170.27683594 78.57494141 -169.5390625 77.12109375 C-150.31429617 40.55335038 -116.39344482 14.4529654 -77.3046875 2.25 C-53.44115787 -4.86326988 -24.29654748 -6.23088879 0 0 Z M-108.75 83.8125 C-127.45286935 105.47207296 -134.63405307 131.77887887 -133 160 C-130.6378285 185.78285062 -117.06379289 208.93156874 -98 226 C-75.08473492 244.17417575 -48.43699552 250.5842722 -19.63232422 247.76855469 C-10.64146989 246.58812705 -2.26750647 243.63064901 6 240 C6.99644531 239.56945312 7.99289062 239.13890625 9.01953125 238.6953125 C31.99404609 228.03610116 49.33892564 207.76982801 58.40625 184.37109375 C65.48123283 164.8233279 66.48597697 143.09150008 61 123 C60.73316406 121.99195313 60.46632813 120.98390625 60.19140625 119.9453125 C52.77012752 95.07578288 35.00466611 75.30876616 13 62.21484375 C-28.26480252 40.29291741 -77.26143969 50.57760706 -108.75 83.8125 Z " fill="#FCFCFC" transform="translate(334,150)"/>
<path d="M0 0 C7.1892385 5.05189733 11.53724536 11.89560887 15 19.875 C16.82788769 31.85781929 15.74902678 42.2880411 9.2109375 52.71875 C3.3400152 60.19679628 -5.15227813 64.91512193 -14.4375 66.5625 C-24.57917258 67.66367356 -33.37999704 65.67411974 -41.75 59.75 C-49.08882721 53.74686936 -53.3978974 47.19120843 -56.1875 38.125 C-57.37001915 26.00417874 -55.29373434 16.12506578 -47.4375 6.5625 C-34.72329754 -7.01004524 -16.03381111 -9.45583732 0 0 Z " fill="#FBFBFB" transform="translate(478.4375,110.4375)"/>
</svg>
