<?xml version="1.0" encoding="UTF-8"?>
<svg version="1.1" xmlns="http://www.w3.org/2000/svg" width="626" height="626">
<path d="M0 0 C1.92512779 -0.00346312 3.85025359 -0.00823205 5.77537531 -0.01418173 C11.02764463 -0.02663139 16.27974909 -0.02054898 21.53201878 -0.01122308 C27.2110236 -0.00440811 32.89000096 -0.01492588 38.56900024 -0.02316284 C49.67895746 -0.03647606 60.78885375 -0.03363326 71.89881331 -0.02492492 C80.93056809 -0.01813962 89.96230583 -0.01723531 98.99406242 -0.02049637 C100.92492823 -0.02118592 100.92492823 -0.02118592 102.89480142 -0.0218894 C105.51010018 -0.02284861 108.12539893 -0.02382125 110.74069767 -0.02480717 C134.54412837 -0.03311046 158.34752449 -0.02451159 182.15094967 -0.00877938 C203.85744103 0.00545785 225.56387958 0.00418078 247.27037048 -0.01016235 C271.68781884 -0.02624311 296.10523331 -0.03253169 320.5226869 -0.02332556 C323.12786098 -0.02236995 325.73303506 -0.02142684 328.33820915 -0.02049637 C329.61988975 -0.02003354 330.90157035 -0.01957072 332.22208976 -0.01909386 C341.24012906 -0.01650707 350.25814959 -0.02086825 359.27618599 -0.02793503 C370.27015761 -0.03636113 381.264065 -0.03404643 392.25802929 -0.0180928 C397.86381649 -0.01022533 403.46949671 -0.00709253 409.07528305 -0.01704025 C414.21288263 -0.02601908 419.35027666 -0.02100192 424.48785775 -0.0051076 C426.34026866 -0.00177329 428.19269716 -0.00342322 430.04509664 -0.01073496 C457.7429775 -0.11162509 479.17929584 8.64428353 499.59922791 27.38095093 C501.74599954 29.64005364 503.65516529 31.93841072 505.59922791 34.38095093 C506.22700134 34.9661853 506.85477478 35.55141968 507.50157166 36.15438843 C510.05228914 38.86185391 511.80814609 41.83764162 513.59922791 45.06845093 C513.94953064 45.69421021 514.29983337 46.31996948 514.66075134 46.96469116 C521.83202587 59.91876651 526.76701166 73.40609481 526.73065567 88.35503292 C526.73373462 89.5388498 526.73373462 89.5388498 526.73687577 90.74658218 C526.74253731 93.39530492 526.74108956 96.04397553 526.7396698 98.69270325 C526.74225393 100.60934877 526.74526723 102.52599375 526.7486732 104.44263798 C526.75674102 109.71325877 526.75853266 114.98386593 526.75927067 120.25449216 C526.76112164 125.93775699 526.76866927 131.62101476 526.77540588 137.30427551 C526.7889889 149.73428206 526.79501408 162.16428539 526.79941654 174.59429812 C526.80217941 182.35718336 526.80641689 190.12006735 526.81092072 197.88295174 C526.8231141 219.37967468 526.83344815 240.87639601 526.83679581 262.37312222 C526.83701744 263.76294311 526.83723922 265.152764 526.83746116 266.5425849 C526.8376818 267.93572154 526.83790228 269.32885818 526.83812261 270.72199482 C526.83856515 273.51676079 526.83901227 276.31152676 526.83946228 279.10629272 C526.83957167 279.79923072 526.83968106 280.49216871 526.83979377 281.20610482 C526.84342254 303.66301792 526.85933577 326.1198987 526.88265264 348.57679943 C526.90727297 372.33263192 526.92096299 396.08844221 526.92216372 419.84428841 C526.92307987 432.78857413 526.92881675 445.73281754 526.94698334 458.6770916 C526.96240115 469.70162067 526.9674949 480.72609436 526.95924523 491.75063216 C526.95534451 497.37268863 526.95624013 502.99463365 526.97030258 508.61667633 C526.98307613 513.77071466 526.98181366 518.92455817 526.96971187 524.07859636 C526.96776084 525.9360086 526.97080563 527.79343481 526.97955623 529.65082746 C527.04693807 544.92944085 525.82522868 558.59656901 518.59922791 572.38095093 C517.82579041 573.95489624 517.82579041 573.95489624 517.03672791 575.56063843 C513.0813569 583.34319712 508.43076452 589.89693469 502.59922791 596.38095093 C501.98563416 597.07704468 501.37204041 597.77313843 500.73985291 598.49032593 C486.11964033 614.11021116 464.07898709 625.8406265 442.54176354 626.56796134 C437.58564288 626.66724328 432.6296084 626.65271167 427.67274475 626.64164734 C425.75035767 626.64467086 423.82797179 626.64856134 421.90558803 626.65323991 C416.64238461 626.66350271 411.37924944 626.66134246 406.11604047 626.65705931 C400.43221636 626.65458899 394.74840856 626.66361004 389.06459045 626.6710968 C377.93705485 626.68383709 366.80954339 626.68563834 355.68200172 626.68329654 C346.6363197 626.68151255 337.59064499 626.68326476 328.54496384 626.68752098 C327.25688929 626.68811617 325.96881473 626.68871136 324.64170762 626.68932458 C322.024877 626.69053635 319.40804638 626.69175048 316.79121576 626.69296696 C299.22506811 626.70075223 281.65892435 626.70467466 264.09277534 626.70065022 C263.06308705 626.70041565 263.06308705 626.70041565 262.01259696 626.70017635 C258.5336076 626.6993706 255.05461824 626.69852483 251.57562889 626.69766305 C250.88473031 626.69749196 250.19383173 626.69732087 249.48199683 626.6971446 C248.0848336 626.69679794 246.68767037 626.69644941 245.29050714 626.69609901 C223.55111286 626.69074194 201.81175915 626.69867352 180.07237244 626.71713257 C155.62969573 626.73786286 131.18704837 626.74854228 106.74436176 626.74455708 C93.80916024 626.74264514 80.87399568 626.74513198 67.93880081 626.75927162 C56.92750689 626.7711866 45.91627268 626.77258891 34.90497793 626.76048145 C29.28921322 626.75459378 23.67355772 626.75349042 18.05780029 626.76548386 C12.91207972 626.77634558 7.7665595 626.77323571 2.62084828 626.75922217 C0.76429599 626.75657608 -1.09227203 626.75893899 -2.94880889 626.76695804 C-13.19502069 626.80812586 -22.48128562 626.29584731 -32.40077209 623.38095093 C-33.4367846 623.09074973 -34.47279711 622.80054853 -35.54020393 622.50155336 C-47.9187668 618.9265344 -60.52815075 611.67607805 -69.40077209 602.38095093 C-70.02081116 601.78153687 -70.64085022 601.1821228 -71.27967834 600.56454468 C-81.71025216 590.45064862 -88.75831366 578.7213348 -94.40077209 565.38095093 C-94.84936584 564.34841187 -94.84936584 564.34841187 -95.30702209 563.29501343 C-100.02020445 551.74771667 -99.6888133 539.70909141 -99.66146851 527.46792603 C-99.66449204 525.54696433 -99.66838253 523.62600384 -99.67306107 521.70504546 C-99.68332389 516.44570325 -99.68116361 511.18642935 -99.67688048 505.92708158 C-99.67441012 500.24730924 -99.6834313 494.56755321 -99.69091797 488.88778687 C-99.70365866 477.76760127 -99.70545942 466.64743984 -99.70311771 455.52724817 C-99.70133358 446.48635068 -99.70308622 437.44546052 -99.70734215 428.4045639 C-99.70793734 427.1170668 -99.70853253 425.82956969 -99.70914575 424.50305752 C-99.71035752 421.88735837 -99.71157166 419.27165921 -99.71278813 416.65596005 C-99.72057364 399.09668009 -99.7244957 381.53740402 -99.72047138 363.97812271 C-99.72031501 363.29191428 -99.72015863 362.60570585 -99.71999752 361.89870323 C-99.71919178 358.42100979 -99.718346 354.94331636 -99.71748421 351.46562293 C-99.71731313 350.77498675 -99.71714204 350.08435056 -99.71696577 349.372786 C-99.71661911 347.97615264 -99.71627058 346.57951929 -99.71592018 345.18288593 C-99.71056437 323.45689935 -99.71849096 301.73095337 -99.73695374 280.00497437 C-99.75769046 255.57473035 -99.76836212 231.14451571 -99.76437825 206.71426177 C-99.76246709 193.78682128 -99.76494546 180.85941777 -99.77909279 167.93198395 C-99.7910158 156.9258709 -99.79240116 145.91981759 -99.78030262 134.91370371 C-99.77442027 129.30174171 -99.77329676 123.68988894 -99.78530502 118.07793427 C-99.796185 112.93334273 -99.79303526 107.78895135 -99.77904334 102.6443691 C-99.77640223 100.79047298 -99.77874437 98.93656108 -99.7867792 97.08268049 C-99.85252868 80.77064338 -98.08713208 67.09751821 -90.40077209 52.38095093 C-89.66987366 50.90948608 -89.66987366 50.90948608 -88.92420959 49.40829468 C-86.09989078 43.91824179 -83.00233005 39.39685867 -78.72108459 34.93954468 C-77.18531517 33.46705227 -77.18531517 33.46705227 -77.40077209 31.38095093 C-75.90467834 29.94345093 -75.90467834 29.94345093 -73.96327209 28.38095093 C-71.24888971 26.23570049 -71.24888971 26.23570049 -69.40077209 23.38095093 C-67.74692895 22.35988255 -66.07784178 21.36340452 -64.40077209 20.38095093 C-62.70339674 19.12333791 -61.01635628 17.85169178 -59.33827209 16.56845093 C-51.88787609 11.11890351 -43.84874926 5.81040444 -34.40077209 5.38095093 C-34.40077209 4.72095093 -34.40077209 4.06095093 -34.40077209 3.38095093 C-22.80909505 0.51398531 -11.89432106 -0.04701081 0 0 Z M37.59922791 89.38095093 C36.60922791 90.12345093 35.61922791 90.86595093 34.59922791 91.63095093 C26.58432563 98.49187513 20.41762375 109.07405361 19.37657166 119.64096069 C18.58585628 136.47604076 21.71630216 149.1277943 33.15000916 161.85751343 C38.15498899 167.11881299 43.96492431 169.66197404 50.59922791 172.38095093 C51.33657166 172.70579468 52.07391541 173.03063843 52.83360291 173.36532593 C66.72435281 178.58667164 83.32003694 176.15188488 96.59922791 170.38095093 C99.85282547 168.63288585 102.7222716 166.68870297 105.59922791 164.38095093 C106.65110291 163.61782593 107.70297791 162.85470093 108.78672791 162.06845093 C112.40816487 158.60796672 115.17194866 154.76210389 117.59922791 150.38095093 C117.59922791 149.72095093 117.59922791 149.06095093 117.59922791 148.38095093 C118.25922791 148.38095093 118.91922791 148.38095093 119.59922791 148.38095093 C124.12787147 133.65573884 125.04295463 119.75541823 118.59922791 105.38095093 C117.33334337 102.99542122 115.99683612 100.6942335 114.59922791 98.38095093 C113.93922791 98.38095093 113.27922791 98.38095093 112.59922791 98.38095093 C112.37235291 97.82407593 112.14547791 97.26720093 111.91172791 96.69345093 C107.56679104 89.03808597 98.96812987 84.26925319 90.78672791 81.63095093 C89.06403558 81.18827767 87.334205 80.77271995 85.59922791 80.38095093 C84.65821228 80.1411853 83.71719666 79.90141968 82.74766541 79.65438843 C67.70230214 76.49295767 49.92848756 80.13400619 37.59922791 89.38095093 Z M290.59922791 226.38095093 C289.64532166 227.1105603 288.69141541 227.84016968 287.70860291 228.59188843 C278.3333743 236.05909312 271.55484301 244.64308978 264.59922791 254.38095093 C264.26922791 241.51095093 263.93922791 228.64095093 263.59922791 215.38095093 C251.62118896 215.35840126 239.64316401 215.34003663 227.66510868 215.32913876 C222.10383379 215.32390959 216.54257411 215.31681134 210.98130798 215.30551147 C205.61915372 215.29468378 200.25701413 215.28867435 194.89484978 215.28607368 C192.84422512 215.28421922 190.79360131 215.28059821 188.74298286 215.27522087 C185.88132587 215.268012 183.01973033 215.26695992 180.1580658 215.26742554 C179.30139313 215.26383026 178.44472046 215.26023499 177.56208801 215.25653076 C173.77412926 214.89301927 173.77412926 214.89301927 170.59922791 216.38095093 C170.50243019 217.8770211 170.47551049 219.3776643 170.47618008 220.87686253 C170.47418903 221.85420434 170.47219798 222.83154615 170.4701466 223.83850437 C170.47305944 224.92505706 170.47597228 226.01160974 170.47897339 227.13108826 C170.47811896 228.27533734 170.47726454 229.41958643 170.47638422 230.59850973 C170.47501609 233.78870599 170.47816337 236.97886216 170.48316228 240.16905367 C170.48746363 243.60396936 170.48602059 247.03888304 170.48526001 250.47380066 C170.48473457 256.42971812 170.48788342 262.38562467 170.49349785 268.34153938 C170.50161019 276.95288918 170.50422779 285.56423367 170.50548584 294.17558687 C170.50767678 308.14549312 170.514338 322.11539355 170.52378845 336.08529663 C170.53296149 349.65918956 170.54004285 363.23308091 170.54429626 376.80697632 C170.54455899 377.64307236 170.54482171 378.47916839 170.5450924 379.34060068 C170.54639739 383.53486998 170.54766111 387.7291393 170.5489043 391.92340863 C170.55927822 426.74259355 170.57689767 461.5617717 170.59922791 496.38095093 C182.57719912 496.53451937 194.5552235 496.68270114 206.53334713 496.82391453 C212.09465127 496.88964952 217.65591933 496.95727353 223.21714783 497.02914429 C228.57925435 497.09837335 233.94139882 497.16273235 239.30360603 497.22364616 C241.35425011 497.24781041 243.40487392 497.2737602 245.45547295 497.30148506 C248.31707967 497.33987658 251.17869126 497.37204471 254.04039001 497.40267944 C254.89706268 497.41562546 255.75373535 497.42857147 256.6363678 497.44190979 C258.6240098 497.45995286 260.6120194 497.42621299 262.59922791 497.38095093 C264.4674682 495.51271064 263.73625048 492.35838297 263.74398804 489.86740112 C263.74751488 489.17869289 263.75104173 488.48998466 263.75467545 487.78040648 C263.76541395 485.45519071 263.76905241 483.13001582 263.77281189 480.80477905 C263.77911354 479.14437688 263.7858789 477.48397641 263.79307556 475.82357788 C263.80777735 472.23805595 263.81948945 468.65254069 263.82902336 465.06700134 C263.84444851 459.39358444 263.86840019 453.72022379 263.8939209 448.04684448 C263.96518745 431.91020261 264.02480506 415.77352775 264.07603455 399.6368103 C264.10438035 390.73206228 264.13979012 381.82736948 264.1826883 372.92267942 C264.20940771 367.28775397 264.22734621 361.65289103 264.23872554 356.01791477 C264.24788336 352.50152726 264.26526111 348.98521517 264.28490448 345.46887207 C264.29234787 343.84398084 264.2964591 342.21907021 264.2968998 340.59416199 C264.30509018 323.87873852 267.16664009 310.33703556 279.31407166 297.86923218 C280.81708395 296.4563899 280.81708395 296.4563899 280.59922791 294.38095093 C281.13547791 294.13345093 281.67172791 293.88595093 282.22422791 293.63095093 C284.68827161 292.41207629 284.68827161 292.41207629 287.03672791 290.56845093 C294.17711685 285.73551592 303.02321945 282.80272184 311.59922791 282.38095093 C312.36493103 282.34227905 313.13063416 282.30360718 313.91954041 282.26376343 C325.38360694 281.94032581 333.79360505 284.53254054 343.59922791 290.38095093 C344.92578261 291.06100595 346.25668069 291.73303951 347.59922791 292.38095093 C347.59922791 293.04095093 347.59922791 293.70095093 347.59922791 294.38095093 C348.25922791 294.38095093 348.91922791 294.38095093 349.59922791 294.38095093 C349.85704041 294.90044312 350.11485291 295.4199353 350.38047791 295.95516968 C351.32685677 297.83882761 352.28817895 299.71498113 353.25547791 301.58798218 C353.87020398 302.78973209 354.48478368 303.99155689 355.09922791 305.19345093 C355.40731384 305.78448608 355.71539978 306.37552124 356.03282166 306.98446655 C366.66307906 327.9028057 364.06995518 355.57713164 364.10533881 378.50848627 C364.11489485 382.6710974 364.14110772 386.83360792 364.16534424 390.99615479 C364.20854942 398.83282189 364.23737559 406.66946898 364.26066762 414.50621784 C364.29310267 425.12830626 364.34849715 435.75027547 364.40241337 446.37227249 C364.48643713 463.04179584 364.54043192 479.71127522 364.59922791 496.38095093 C394.95922791 496.38095093 425.31922791 496.38095093 456.59922791 496.38095093 C456.65756595 466.12119049 456.65756595 466.12119049 456.69688416 435.86141968 C456.70871792 423.50870082 456.72257441 411.15600939 456.75010681 398.80331421 C456.77015526 389.8040166 456.78297128 380.80474139 456.78740489 371.80542207 C456.78999304 367.04840203 456.79599709 362.29144605 456.81068802 357.53444672 C456.91103573 323.72804593 456.69838583 291.05430328 440.59922791 260.38095093 C440.27051697 259.7497937 439.94180603 259.11863647 439.60313416 258.46835327 C434.64230737 249.17709522 427.98727431 241.76899733 420.59922791 234.38095093 C419.99465759 233.77638062 419.39008728 233.1718103 418.76719666 232.54891968 C409.65390653 224.17392141 398.35390893 218.00552066 386.59922791 214.38095093 C385.8802533 214.15923218 385.16127869 213.93751343 384.42051697 213.70907593 C353.59752363 204.46602919 316.89609588 205.95891516 290.59922791 226.38095093 Z M24.59922791 215.38095093 C24.59922791 308.11095093 24.59922791 400.84095093 24.59922791 496.38095093 C54.95922791 496.38095093 85.31922791 496.38095093 116.59922791 496.38095093 C116.59922791 403.65095093 116.59922791 310.92095093 116.59922791 215.38095093 C86.23922791 215.38095093 55.87922791 215.38095093 24.59922791 215.38095093 Z " fill="#FBFBFB" transform="translate(99.40077209472656,-0.380950927734375)"/>
<path d="M0 0 C31.35 0 62.7 0 95 0 C95 93.72 95 187.44 95 284 C63.65 284 32.3 284 0 284 C0 190.28 0 96.56 0 0 Z M1 1 C1 93.73 1 186.46 1 282 C31.36 282 61.72 282 93 282 C93 189.27 93 96.54 93 1 C62.64 1 32.28 1 1 1 Z " fill="#2E2E2E" transform="translate(123,214)"/>
<path d="M0 0 C0.99 0.495 0.99 0.495 2 1 C2.02332624 24.97334775 2.04097782 48.94669382 2.05181217 72.92005062 C2.05697571 84.05046403 2.06401952 95.1808704 2.07543945 106.3112793 C2.08538451 116.00880216 2.091853 125.70631993 2.09408849 135.40384775 C2.0953959 140.54197829 2.09848366 145.68009426 2.10573006 150.81822014 C2.11248747 155.64849446 2.11461753 160.47874812 2.11310768 165.30902672 C2.11338414 167.08725853 2.1153909 168.86549098 2.11920547 170.64371872 C2.12413838 173.06063636 2.1229998 175.47747467 2.12025452 177.89439392 C2.12316736 178.60741557 2.1260802 179.32043721 2.12908131 180.05506557 C2.11412121 184.88587879 2.11412121 184.88587879 1 186 C-1.92198103 186.0952548 -4.82017107 186.1255143 -7.74243164 186.11352539 C-8.67429763 186.11364593 -9.60616362 186.11376646 -10.56626797 186.11389065 C-13.59758793 186.1131413 -16.62884722 186.10551209 -19.66015625 186.09765625 C-21.52567515 186.0961869 -23.39119447 186.09516615 -25.25671387 186.09460449 C-32.19198218 186.08935082 -39.12724168 186.07538975 -46.0625 186.0625 C-61.551875 186.041875 -77.04125 186.02125 -93 186 C-93 132.87 -93 79.74 -93 25 C-92.67 25 -92.34 25 -92 25 C-90.78568777 32.58021334 -90.8660688 40.10956314 -90.88647461 47.76953125 C-90.88675704 49.25837706 -90.88659765 50.747223 -90.8860321 52.23606873 C-90.88574632 56.25820632 -90.89160755 60.28031383 -90.89860606 64.30244446 C-90.90487617 68.51315151 -90.90544629 72.72385932 -90.90663147 76.93457031 C-90.90973402 84.89936156 -90.91793288 92.864139 -90.92798096 100.82892418 C-90.94127058 111.59795239 -90.9466507 122.3669844 -90.95248318 133.13601875 C-90.96187352 150.0906895 -90.98179962 167.04533112 -91 184 C-60.64 184 -30.28 184 1 184 C0.67 123.28 0.34 62.56 0 0 Z " fill="#323232" transform="translate(555,312)"/>
<path d="M0 0 C0.66 0.33 1.32 0.66 2 1 C0.71086513 1.67154933 -0.58140204 2.33708859 -1.875 3 C-2.59429687 3.37125 -3.31359375 3.7425 -4.0546875 4.125 C-6 5 -6 5 -8 5 C-8 5.66 -8 6.32 -8 7 C-14.04166667 12 -14.04166667 12 -17 12 C-17.99 13.485 -17.99 13.485 -19 15 C-21.78537511 15.78561862 -24.1003917 16 -27 16 C-18.98690768 8.89161165 -10.21170989 3.4039033 0 0 Z " fill="#717171" transform="translate(61,5)"/>
<path d="M0 0 C4.59693928 4.59693928 4.87857206 13.57887563 5.19140625 19.81640625 C5.18803934 22.88366153 5.13742028 25.93603673 5 29 C3.21590198 25.93753253 2.77119979 23.77920727 2.875 20.25 C2.89304687 19.45078125 2.91109375 18.6515625 2.9296875 17.828125 C2.96449219 16.92320313 2.96449219 16.92320313 3 16 C2.34 16 1.68 16 1 16 C1.01160156 15.43152344 1.02320313 14.86304687 1.03515625 14.27734375 C1.09223194 9.39329516 0.81956772 4.81496035 0 0 Z " fill="#7F7F7F" transform="translate(621,64)"/>
<path d="M0 0 C0 3.70103827 -1.3608576 5.72171521 -3 9 C-3 9.99 -3 10.98 -3 12 C-4.32 12.33 -5.64 12.66 -7 13 C-5.58832253 7.73829306 -3.25149768 4.27828642 0 0 Z " fill="#6F6F6F" transform="translate(17,39)"/>
<path d="M0 0 C-1.4562545 0.67119549 -2.91507867 1.33681807 -4.375 2 C-5.59316406 2.556875 -5.59316406 2.556875 -6.8359375 3.125 C-9 4 -9 4 -11 4 C-11 3.01 -11 2.02 -11 1 C-4.03571429 -1.27678571 -4.03571429 -1.27678571 0 0 Z " fill="#5E5E5E" transform="translate(410,216)"/>
<path d="M0 0 C2.1875 0.3125 2.1875 0.3125 4 1 C2.06745228 3.0245738 0.36841312 4.42105792 -2 6 C-2.33 5.01 -2.66 4.02 -3 3 C-1.75 1.4375 -1.75 1.4375 0 0 Z " fill="#BFBFBF" transform="translate(48,11)"/>
<path d="" fill="#060606" transform="translate(0,0)"/>
<path d="" fill="#080808" transform="translate(0,0)"/>
<path d="" fill="#060606" transform="translate(0,0)"/>
<path d="" fill="#060606" transform="translate(0,0)"/>
<path d="" fill="#070707" transform="translate(0,0)"/>
<path d="" fill="#060606" transform="translate(0,0)"/>
</svg>
